<?xml version="1.0" standalone="no"?>
<!DOCTYPE svg PUBLIC "-//W3C//DTD SVG 20010904//EN"
 "http://www.w3.org/TR/2001/REC-SVG-20010904/DTD/svg10.dtd">
<svg version="1.0" xmlns="http://www.w3.org/2000/svg"
 width="252.000000pt" height="339.000000pt" viewBox="0 0 252.000000 339.000000"
 preserveAspectRatio="xMidYMid meet">

<g transform="translate(0.000000,339.000000) scale(0.100000,-0.100000)"
fill="#000000" stroke="none">
<path d="M0 1695 l0 -1695 120 0 c116 0 120 1 124 23 8 36 54 413 66 537 6 63
20 185 31 270 11 85 24 191 29 235 7 62 19 98 51 163 74 146 151 211 326 276
132 49 183 79 246 140 31 31 61 56 67 56 6 0 8 -19 5 -47 -8 -75 11 -21 24 67
11 81 7 112 -30 220 -12 36 -24 71 -25 78 -2 6 -17 12 -33 12 -46 0 -75 48
-80 134 -2 44 0 66 7 62 11 -6 35 17 26 26 -2 3 2 8 10 11 9 4 22 -3 30 -15
19 -27 23 -18 30 80 7 99 49 193 95 212 24 10 41 10 67 2 23 -7 34 -7 34 0 0
14 55 2 100 -21 20 -10 60 -22 90 -26 92 -11 115 -23 139 -72 11 -24 21 -48
21 -52 0 -5 -29 -13 -65 -16 -66 -7 -117 -32 -139 -67 -15 -25 41 -81 66 -67
11 6 18 6 18 1 0 -13 63 -22 106 -15 35 6 35 7 30 44 -3 21 -1 41 4 44 15 9
28 -33 35 -111 6 -59 2 -82 -23 -163 -16 -52 -32 -89 -36 -82 -4 6 -5 20 -1
30 3 11 3 31 -1 45 l-6 26 -24 -25 c-13 -14 -24 -33 -24 -41 0 -24 -24 -26
-94 -9 -44 11 -71 14 -79 7 -7 -5 -40 -12 -75 -15 -64 -5 -81 -11 -68 -24 7
-7 90 -13 173 -13 28 1 54 -4 58 -9 3 -6 -1 -11 -10 -11 -9 0 -34 -9 -57 -21
-22 -11 -48 -19 -58 -16 -10 2 -23 1 -29 -3 -18 -10 -3 -37 24 -44 55 -14 75
-25 69 -41 -3 -8 -17 -15 -29 -15 -13 0 -50 -14 -82 -30 -66 -35 -64 -34 -57
-17 5 15 -27 57 -45 57 -6 0 -11 -2 -11 -5 0 -9 168 -250 191 -272 12 -13 25
-20 30 -17 9 5 44 -26 52 -47 6 -16 22 3 74 85 62 97 75 128 71 162 -4 32 0
30 87 -61 83 -86 100 -98 210 -153 125 -62 165 -96 233 -193 65 -95 72 -131
82 -379 5 -124 11 -233 14 -240 5 -15 56 -584 56 -628 0 -22 2 -22 140 -22
l140 0 0 1695 0 1695 -1260 0 -1260 0 0 -1695z m1529 602 c16 -20 4 -27 -43
-27 l-41 1 24 19 c27 23 44 25 60 7z"/>
<path d="M1152 2338 c-8 -10 -1 -18 29 -32 l40 -20 -27 -14 c-14 -8 -39 -12
-55 -10 -15 3 -26 1 -23 -4 3 -4 0 -8 -5 -8 -6 0 -11 -4 -11 -9 0 -12 83 -22
120 -15 19 4 30 13 30 23 0 9 4 21 9 27 6 5 1 19 -12 35 -26 31 -79 46 -95 27z"/>
<path d="M1340 2081 c-8 -6 -26 -7 -40 -4 -32 6 -63 -23 -40 -37 7 -4 18 -6
25 -4 6 3 25 -2 41 -11 53 -27 94 -17 94 25 0 20 -6 29 -22 34 -31 8 -40 7
-58 -3z"/>
<path d="M1603 1570 c0 -25 2 -35 4 -22 2 12 2 32 0 45 -2 12 -4 2 -4 -23z"/>
<path d="M1781 1406 c-9 -11 -8 -15 5 -20 26 -10 34 -7 34 14 0 23 -22 27 -39
6z"/>
<path d="M895 1330 c3 -5 8 -10 11 -10 2 0 4 5 4 10 0 6 -5 10 -11 10 -5 0 -7
-4 -4 -10z"/>
<path d="M985 1320 c3 -5 10 -10 16 -10 5 0 9 5 9 10 0 6 -7 10 -16 10 -8 0
-12 -4 -9 -10z"/>
<path d="M1758 943 c7 -3 16 -2 19 1 4 3 -2 6 -13 5 -11 0 -14 -3 -6 -6z"/>
<path d="M1740 838 c0 -17 2 -18 15 -8 8 7 15 14 15 15 0 2 -7 5 -15 9 -10 4
-15 -1 -15 -16z"/>
<path d="M1731 794 c0 -11 3 -14 6 -6 3 7 2 16 -1 19 -3 4 -6 -2 -5 -13z"/>
<path d="M766 734 c-22 -22 -20 -24 15 -14 26 8 37 5 60 -11 35 -25 38 -17 4
16 -28 29 -57 32 -79 9z"/>
<path d="M621 664 c-13 -17 -21 -41 -21 -65 0 -48 16 -60 17 -12 1 19 11 48
22 64 12 15 21 31 21 34 0 13 -21 2 -39 -21z"/>
<path d="M1928 655 c-2 -19 0 -35 4 -35 4 0 8 16 8 35 0 19 -2 35 -4 35 -2 0
-6 -16 -8 -35z"/>
<path d="M883 644 c1 -21 -1 -51 -6 -66 -6 -22 -4 -26 8 -22 17 7 21 89 6 113
-6 10 -9 2 -8 -25z"/>
<path d="M836 642 c-3 -5 -10 -28 -15 -52 -7 -31 -6 -46 3 -55 9 -9 14 -9 24
2 10 10 10 13 -3 13 -18 0 -19 12 -5 59 9 34 8 51 -4 33z"/>
<path d="M1070 610 c-13 -8 -12 -10 3 -10 9 0 17 5 17 10 0 12 -1 12 -20 0z"/>
<path d="M698 563 c7 -3 16 -2 19 1 4 3 -2 6 -13 5 -11 0 -14 -3 -6 -6z"/>
</g>
</svg>
